<svg width="10" height="17" viewBox="0 0 10 17" fill="none" xmlns="http://www.w3.org/2000/svg">
<path d="M1.69492 3.44068C2.63099 3.44068 3.38983 2.68184 3.38983 1.74576C3.38983 0.809682 2.63099 0.0508423 1.69492 0.0508423C0.75884 0.0508423 0 0.809682 0 1.74576C0 2.68184 0.75884 3.44068 1.69492 3.44068Z" fill="#6B7280"/>
<path d="M1.69492 10.2203C2.63099 10.2203 3.38983 9.4615 3.38983 8.52542C3.38983 7.58935 2.63099 6.83051 1.69492 6.83051C0.75884 6.83051 0 7.58935 0 8.52542C0 9.4615 0.75884 10.2203 1.69492 10.2203Z" fill="#6B7280"/>
<path d="M1.69492 17C2.63099 17 3.38983 16.2412 3.38983 15.3051C3.38983 14.369 2.63099 13.6102 1.69492 13.6102C0.75884 13.6102 0 14.369 0 15.3051C0 16.2412 0.75884 17 1.69492 17Z" fill="#6B7280"/>
<path d="M8.30509 3.44068C9.24116 3.44068 10 2.68184 10 1.74576C10 0.809682 9.24116 0.0508423 8.30509 0.0508423C7.36901 0.0508423 6.61017 0.809682 6.61017 1.74576C6.61017 2.68184 7.36901 3.44068 8.30509 3.44068Z" fill="#6B7280"/>
<path d="M8.30509 10.2203C9.24116 10.2203 10 9.4615 10 8.52542C10 7.58935 9.24116 6.83051 8.30509 6.83051C7.36901 6.83051 6.61017 7.58935 6.61017 8.52542C6.61017 9.4615 7.36901 10.2203 8.30509 10.2203Z" fill="#6B7280"/>
<path d="M8.30509 17C9.24116 17 10 16.2412 10 15.3051C10 14.369 9.24116 13.6102 8.30509 13.6102C7.36901 13.6102 6.61017 14.369 6.61017 15.3051C6.61017 16.2412 7.36901 17 8.30509 17Z" fill="#6B7280"/>
</svg>
