<svg width="30" height="18" viewBox="0 0 30 18" fill="none" xmlns="http://www.w3.org/2000/svg">
<path d="M2.96972 17.8243L8.63096 8.52013C8.8189 8.54973 9.00982 8.56953 9.20603 8.56953C9.83592 8.56953 10.4283 8.41049 10.9467 8.13147L16.8159 13.094C16.7082 13.44 16.6502 13.8075 16.6502 14.1892C16.6502 16.219 18.2955 17.8641 20.3253 17.8641C22.3551 17.8641 24.0004 16.2189 24.0004 14.1892C24.0004 13.3285 23.7024 12.5388 23.207 11.9126L29.2727 1.63308L26.9589 0.181885L20.9175 10.5659C20.7242 10.5344 20.5274 10.5138 20.3254 10.5138C19.6778 10.5138 19.0703 10.6826 18.542 10.9765L12.6986 6.03516C12.8159 5.67582 12.8814 5.29286 12.8814 4.89419C12.8814 2.86438 11.2357 1.21892 9.2061 1.21892C7.17629 1.21892 5.53097 2.86445 5.53097 4.89419C5.53097 5.73168 5.8143 6.50143 6.28599 7.11938L0.636353 16.404L2.96972 17.8243Z" fill="#F9FAFB"/>
</svg>
