<svg width="24" height="15" viewBox="0 0 24 15" fill="none" xmlns="http://www.w3.org/2000/svg">
<path d="M1.95558 14.3675L6.70024 6.79046C6.85775 6.81457 7.01777 6.83069 7.18221 6.83069C7.71011 6.83069 8.20658 6.70118 8.64103 6.47395L13.56 10.5153C13.4697 10.7971 13.4211 11.0964 13.4211 11.4072C13.4211 13.0602 14.8001 14.4 16.5012 14.4C18.2024 14.4 19.5813 13.0602 19.5813 11.4072C19.5813 10.7063 19.3316 10.0631 18.9163 9.55323L24 1.18182L22.0608 0L16.9976 8.45651C16.8355 8.43087 16.6706 8.41407 16.5013 8.41407C15.9586 8.41407 15.4494 8.55156 15.0066 8.7909L10.1093 4.76677C10.2076 4.47413 10.2625 4.16225 10.2625 3.83759C10.2625 2.18456 8.88327 0.844536 7.18226 0.844536C5.48109 0.844536 4.10215 2.18461 4.10215 3.83759C4.10215 4.51962 4.33961 5.14649 4.73493 5.64972L0 13.2109L1.95558 14.3675Z" fill="#687280"/>
</svg>
