<svg width="19" height="25" viewBox="0 0 19 25" fill="none" xmlns="http://www.w3.org/2000/svg">
<path d="M1.31099 22.6249C1.38701 23.9315 2.51943 25 3.82764 25H6.77832C8.08652 25 10.2278 25 11.5361 25H14.4868C15.795 25 16.9278 23.9315 17.0039 22.6249L17.8704 7.67548H0.444092L1.31099 22.6249Z" fill="white"/>
<path d="M17.8833 3.93511C17.6174 3.82085 15.3015 2.97808 11.8226 2.6627C11.823 2.64697 11.8238 2.63174 11.8238 2.61641C11.8234 1.17104 10.6519 0 9.20693 0C7.76152 0 6.59014 1.17104 6.58975 2.61641C6.58975 2.63169 6.59058 2.64697 6.59092 2.6627C3.11201 2.97808 0.795312 3.82085 0.529834 3.93511C0.0664061 4.13384 0 4.39854 0 4.79595C0 5.06108 0 6.51851 0 6.51851H18.4135C18.4135 6.51851 18.4135 5.06104 18.4135 4.79595C18.4135 4.39854 18.3471 4.13384 17.8833 3.93511ZM9.20654 2.54404C8.82036 2.54404 8.44424 2.55249 8.07656 2.56699C8.10391 1.96514 8.59829 1.48525 9.20693 1.48447C9.81519 1.48525 10.3096 1.96514 10.337 2.56699C9.96924 2.55244 9.59312 2.54404 9.20654 2.54404Z" fill="white"/>
</svg>
